<?xml version="1.0" encoding="UTF-8"?>
<svg xmlns="http://www.w3.org/2000/svg" xmlns:xlink="http://www.w3.org/1999/xlink" width="252px" height="252px" viewBox="0 0 252 252" version="1.1">
<g id="surface1">
<path style=" stroke:none;fill-rule:nonzero;fill:rgb(100%,100%,100%);fill-opacity:1;" d="M 125.949219 1.933594 C 57.5625 1.933594 1.933594 57.578125 1.933594 125.949219 C 1.933594 194.320312 57.5625 249.949219 125.949219 249.949219 C 194.320312 249.949219 249.933594 194.320312 249.933594 125.949219 C 249.933594 57.578125 194.320312 1.933594 125.949219 1.933594 "/>
<path style=" stroke:none;fill-rule:nonzero;fill:rgb(10.980392%,67.843139%,79.607844%);fill-opacity:1;" d="M 205.074219 125.949219 C 205.074219 169.671875 169.640625 205.125 125.953125 205.125 C 82.246094 205.125 46.816406 169.671875 46.816406 125.949219 C 46.816406 82.265625 82.246094 46.8125 125.953125 46.8125 C 169.640625 46.8125 205.074219 82.265625 205.074219 125.949219 "/>
<path style=" stroke:none;fill-rule:nonzero;fill:rgb(30.19608%,77.254903%,88.235295%);fill-opacity:1;" d="M 105.945312 48.730469 L 92.277344 92.917969 L 76.207031 92.917969 L 55.304688 162.847656 C 55.304688 162.847656 85.027344 206.226562 124.414062 206.226562 C 163.785156 206.226562 189.480469 171.679688 194.316406 162.035156 L 171.832031 92.917969 L 153.347656 92.917969 L 142.078125 47.148438 C 142.078125 47.148438 119.597656 44.746094 105.945312 48.730469 "/>
<path style=" stroke:none;fill-rule:nonzero;fill:rgb(100%,100%,100%);fill-opacity:1;" d="M 115.5625 47.953125 L 105.148438 93.75 L 93.0625 93.75 L 68.160156 179.703125 C 68.160156 179.703125 94.695312 206.21875 123.609375 206.21875 C 152.535156 206.21875 176.632812 189.371094 182.269531 179.703125 L 155.746094 96.160156 L 143.683594 96.160156 L 132.449219 48.730469 Z M 115.5625 47.953125 "/>
<path style=" stroke:none;fill-rule:nonzero;fill:rgb(60.000002%,83.92157%,29.411766%);fill-opacity:1;" d="M 71.921875 182.273438 C 86.226562 196.398438 105.867188 205.125 127.535156 205.125 C 147.886719 205.125 166.453125 197.433594 180.457031 184.789062 C 166.296875 174.003906 146.4375 167.261719 124.410156 167.261719 C 104.195312 167.261719 85.761719 172.949219 71.921875 182.273438 "/>
<path style=" stroke:none;fill-rule:nonzero;fill:rgb(60.000002%,83.92157%,29.411766%);fill-opacity:1;" d="M 124.8125 136.054688 C 120.460938 129.375 110.941406 118.632812 94.199219 118.632812 C 94.199219 118.632812 100.886719 148.789062 123.453125 152.097656 C 123.453125 152.097656 124.058594 151.761719 124.8125 151.082031 C 125.566406 151.761719 126.125 152.097656 126.125 152.097656 C 148.757812 148.789062 155.425781 118.632812 155.425781 118.632812 C 138.703125 118.632812 129.148438 129.375 124.8125 136.054688 "/>
<path style=" stroke:none;fill-rule:nonzero;fill:rgb(60.000002%,83.92157%,29.411766%);fill-opacity:1;" d="M 128.425781 171.679688 L 121.191406 171.679688 L 121.191406 145.148438 L 128.425781 145.148438 Z M 128.425781 171.679688 "/>
<path style=" stroke:none;fill-rule:nonzero;fill:rgb(100%,100%,100%);fill-opacity:1;" d="M 125.949219 48.984375 C 83.488281 48.984375 48.941406 83.515625 48.941406 125.953125 C 48.941406 168.394531 83.488281 202.964844 125.949219 202.964844 C 168.410156 202.964844 202.929688 168.394531 202.929688 125.953125 C 202.929688 83.515625 168.410156 48.984375 125.949219 48.984375 M 125.949219 207.261719 C 81.121094 207.261719 44.648438 170.789062 44.648438 125.953125 C 44.648438 81.148438 81.121094 44.675781 125.949219 44.675781 C 170.761719 44.675781 207.25 81.148438 207.25 125.953125 C 207.25 170.789062 170.761719 207.261719 125.949219 207.261719 "/>
<path style=" stroke:none;fill-rule:nonzero;fill:rgb(9.411765%,7.058824%,6.27451%);fill-opacity:1;" d="M 39.5625 157.179688 L 44.535156 166.09375 L 43.527344 166.683594 C 43.339844 166.300781 43.066406 165.9375 42.730469 165.464844 C 42.394531 164.972656 42.109375 164.683594 41.929688 164.554688 C 41.5625 164.339844 41.242188 164.25 40.921875 164.234375 C 40.617188 164.234375 40.296875 164.324219 39.929688 164.488281 L 25.269531 172.648438 L 25.371094 172.863281 L 46.378906 170.199219 L 46.796875 170.945312 L 32.84375 187.195312 L 32.933594 187.347656 L 45.003906 180.695312 C 46.171875 180.046875 47 179.5 47.535156 179.015625 C 48.058594 178.523438 48.363281 178.066406 48.476562 177.574219 C 48.542969 177.277344 48.492188 176.730469 48.3125 175.992188 C 48.140625 175.253906 47.992188 174.746094 47.902344 174.574219 L 48.910156 173.984375 L 53.417969 182.171875 L 52.394531 182.710938 C 52.140625 182.300781 51.820312 181.917969 51.449219 181.507812 C 51.097656 181.066406 50.714844 180.769531 50.359375 180.636719 C 49.917969 180.476562 49.386719 180.476562 48.761719 180.613281 C 48.140625 180.820312 47.199219 181.269531 45.894531 181.964844 L 35.5625 187.710938 C 34.980469 188.019531 34.523438 188.355469 34.234375 188.71875 C 33.933594 189.078125 33.734375 189.445312 33.636719 189.855469 C 33.5625 190.308594 33.578125 190.75 33.667969 191.257812 C 33.785156 191.765625 33.941406 192.199219 34.167969 192.644531 L 33.179688 193.199219 L 29.351562 186.332031 L 41.304688 172.199219 L 25.910156 174.230469 C 25.335938 174.296875 24.769531 174.425781 24.179688 174.574219 C 23.589844 174.746094 23.238281 174.871094 23.042969 174.953125 L 19.414062 168.371094 L 20.421875 167.78125 C 20.566406 168.035156 20.789062 168.371094 21.109375 168.742188 C 21.410156 169.101562 21.648438 169.347656 21.8125 169.542969 C 22.082031 169.773438 22.417969 169.90625 22.738281 169.855469 C 23.058594 169.839844 23.378906 169.683594 23.699219 169.542969 L 38.265625 161.503906 C 38.601562 161.300781 38.839844 161.0625 39.035156 160.851562 C 39.191406 160.621094 39.257812 160.300781 39.257812 159.859375 C 39.257812 159.644531 39.175781 159.285156 39.019531 158.816406 C 38.839844 158.359375 38.710938 157.980469 38.570312 157.695312 Z M 39.5625 157.179688 "/>
<path style=" stroke:none;fill-rule:nonzero;fill:rgb(9.411765%,7.058824%,6.27451%);fill-opacity:1;" d="M 37.082031 145.289062 L 39.898438 155.269531 L 38.777344 155.628906 C 38.679688 155.359375 38.539062 154.957031 38.34375 154.425781 C 38.152344 153.890625 37.988281 153.566406 37.867188 153.328125 C 37.621094 153.023438 37.367188 152.867188 37.0625 152.753906 C 36.808594 152.648438 36.472656 152.664062 36.039062 152.769531 L 19.9375 157.316406 C 19.585938 157.425781 19.28125 157.570312 19.078125 157.75 C 18.847656 157.957031 18.726562 158.25 18.691406 158.742188 C 18.660156 159.105469 18.644531 159.523438 18.660156 160.003906 C 18.691406 160.53125 18.726562 160.914062 18.792969 161.25 L 17.683594 161.546875 L 14.867188 151.597656 L 15.988281 151.296875 C 16.078125 151.597656 16.226562 151.949219 16.421875 152.394531 C 16.613281 152.792969 16.816406 153.179688 17.011719 153.472656 C 17.25 153.835938 17.539062 154.066406 17.855469 154.113281 C 18.175781 154.144531 18.496094 154.128906 18.847656 154.066406 L 34.917969 149.523438 C 35.253906 149.417969 35.554688 149.261719 35.785156 149.035156 C 36.007812 148.804688 36.136719 148.484375 36.1875 148.066406 C 36.21875 147.835938 36.203125 147.445312 36.152344 146.917969 C 36.136719 146.394531 36.074219 145.96875 35.972656 145.625 Z M 37.082031 145.289062 "/>
<path style=" stroke:none;fill-rule:nonzero;fill:rgb(9.411765%,7.058824%,6.27451%);fill-opacity:1;" d="M 12.628906 121.273438 C 12.660156 121.570312 12.773438 122.0625 12.980469 122.667969 C 13.183594 123.257812 13.378906 123.726562 13.570312 123.980469 C 13.855469 124.363281 14.421875 124.527344 15.199219 124.660156 C 15.96875 124.742188 16.945312 124.742188 18.132812 124.660156 L 34.988281 123.496094 L 35.078125 124.914062 L 17.222656 140.164062 L 29.097656 139.328125 C 30.40625 139.21875 31.433594 139.054688 32.152344 138.882812 C 32.839844 138.65625 33.316406 138.351562 33.613281 137.984375 C 33.832031 137.703125 34.003906 137.171875 34.167969 136.394531 C 34.324219 135.589844 34.390625 135.082031 34.390625 134.804688 L 35.527344 134.746094 L 36.183594 144.21875 L 35.027344 144.277344 C 35.011719 143.980469 34.855469 143.496094 34.621094 142.816406 C 34.390625 142.144531 34.203125 141.695312 34.003906 141.554688 C 33.703125 141.1875 33.210938 140.957031 32.585938 140.851562 C 31.957031 140.742188 30.875 140.742188 29.382812 140.898438 L 18.035156 141.652344 C 17.542969 141.695312 17.042969 141.800781 16.550781 142.015625 C 16.070312 142.226562 15.714844 142.480469 15.460938 142.777344 C 15.109375 143.203125 14.839844 143.75 14.625 144.449219 C 14.4375 145.128906 14.339844 145.675781 14.355469 146.09375 L 13.183594 146.160156 L 12.742188 139.597656 L 29.382812 125.4375 L 18.453125 126.199219 C 17.109375 126.296875 16.085938 126.453125 15.363281 126.683594 C 14.675781 126.90625 14.207031 127.148438 13.988281 127.519531 C 13.796875 127.832031 13.636719 128.339844 13.488281 129.050781 C 13.332031 129.722656 13.25 130.265625 13.265625 130.625 L 12.128906 130.699219 L 11.488281 121.355469 Z M 12.628906 121.273438 "/>
<path style=" stroke:none;fill-rule:nonzero;fill:rgb(9.411765%,7.058824%,6.27451%);fill-opacity:1;" d="M 36.617188 108.839844 L 35.238281 119.125 L 34.117188 118.96875 C 34.117188 118.671875 34.132812 118.269531 34.199219 117.671875 C 34.230469 117.15625 34.199219 116.769531 34.132812 116.5 C 34.042969 116.140625 33.894531 115.835938 33.675781 115.648438 C 33.445312 115.460938 33.140625 115.355469 32.691406 115.289062 L 16.132812 113.050781 C 15.746094 113.027344 15.425781 113.050781 15.15625 113.125 C 14.886719 113.199219 14.625 113.453125 14.417969 113.871094 C 14.230469 114.191406 14.082031 114.574219 13.863281 115.042969 C 13.714844 115.519531 13.582031 115.925781 13.507812 116.214844 L 12.386719 116.074219 L 13.730469 105.800781 L 14.886719 105.945312 C 14.871094 106.242188 14.835938 106.683594 14.835938 107.128906 C 14.871094 107.617188 14.902344 108.011719 14.960938 108.371094 C 15.023438 108.816406 15.207031 109.09375 15.476562 109.289062 C 15.746094 109.480469 16.066406 109.585938 16.402344 109.625 L 32.988281 111.824219 C 33.339844 111.878906 33.675781 111.824219 33.945312 111.742188 C 34.25 111.640625 34.503906 111.386719 34.699219 111.042969 C 34.820312 110.804688 34.984375 110.445312 35.140625 109.988281 C 35.320312 109.480469 35.429688 109.027344 35.476562 108.683594 Z M 36.617188 108.839844 "/>
<path style=" stroke:none;fill-rule:nonzero;fill:rgb(9.411765%,7.058824%,6.27451%);fill-opacity:1;" d="M 31.046875 89.746094 C 31.703125 89.410156 32.390625 89.265625 33.078125 89.207031 C 33.765625 89.183594 34.503906 89.304688 35.332031 89.542969 C 37.289062 90.179688 38.683594 91.351562 39.460938 93.222656 C 40.296875 95.058594 40.363281 97.046875 39.707031 99.179688 C 39.40625 100.167969 38.9375 101.105469 38.316406 101.988281 C 37.691406 102.867188 37.0625 103.621094 36.40625 104.167969 L 37.324219 105.210938 L 36.9375 106.445312 L 29.316406 104.292969 L 29.703125 103.046875 C 30.710938 103.09375 31.636719 103.046875 32.523438 102.9375 C 33.367188 102.816406 34.234375 102.578125 35.027344 102.210938 C 35.832031 101.867188 36.503906 101.398438 37.09375 100.769531 C 37.691406 100.1875 38.132812 99.390625 38.421875 98.425781 C 38.652344 97.71875 38.742188 97.074219 38.726562 96.449219 C 38.714844 95.875 38.585938 95.359375 38.347656 94.910156 C 38.101562 94.492188 37.78125 94.105469 37.363281 93.8125 C 36.972656 93.515625 36.453125 93.261719 35.847656 93.066406 C 34.980469 92.8125 34.085938 92.8125 33.175781 93.066406 C 32.242188 93.304688 31.449219 93.875 30.742188 94.722656 C 30.261719 95.359375 29.703125 96.007812 29.128906 96.769531 C 28.515625 97.53125 27.992188 98.1875 27.472656 98.710938 C 26.53125 99.777344 25.507812 100.515625 24.394531 100.957031 C 23.269531 101.359375 21.976562 101.316406 20.535156 100.867188 C 19.683594 100.621094 18.945312 100.1875 18.339844 99.605469 C 17.714844 99.078125 17.230469 98.398438 16.871094 97.554688 C 16.503906 96.785156 16.289062 95.925781 16.257812 95.039062 C 16.199219 94.105469 16.304688 93.222656 16.578125 92.328125 C 16.914062 91.320312 17.363281 90.453125 17.902344 89.773438 C 18.503906 89.035156 19.074219 88.417969 19.714844 87.871094 L 18.855469 86.9375 L 19.238281 85.691406 L 26.566406 87.855469 L 26.195312 89.074219 C 25.285156 89.050781 24.394531 89.050781 23.558594 89.117188 C 22.679688 89.140625 21.878906 89.304688 21.125 89.566406 C 20.371094 89.84375 19.714844 90.214844 19.175781 90.761719 C 18.625 91.296875 18.199219 92.007812 17.902344 92.96875 C 17.585938 93.957031 17.648438 94.894531 18.066406 95.746094 C 18.46875 96.664062 19.140625 97.226562 20.050781 97.53125 C 20.992188 97.828125 21.863281 97.84375 22.617188 97.574219 C 23.378906 97.359375 24.082031 96.851562 24.738281 96.15625 C 25.367188 95.507812 25.910156 94.867188 26.394531 94.210938 C 26.882812 93.558594 27.382812 92.96875 27.910156 92.328125 C 28.375 91.820312 28.851562 91.320312 29.382812 90.828125 C 29.90625 90.363281 30.472656 90 31.046875 89.746094 "/>
<path style=" stroke:none;fill-rule:nonzero;fill:rgb(9.411765%,7.058824%,6.27451%);fill-opacity:1;" d="M 36.792969 65.085938 L 36.25 66.050781 C 35.851562 65.960938 35.367188 65.878906 34.777344 65.824219 C 34.203125 65.796875 33.605469 65.796875 33.03125 65.839844 C 32.441406 65.878906 31.875 65.988281 31.367188 66.132812 C 30.851562 66.28125 30.484375 66.519531 30.261719 66.789062 C 30.058594 67.085938 29.828125 67.429688 29.574219 67.824219 C 29.285156 68.273438 29.03125 68.714844 28.835938 69.066406 L 28.378906 69.921875 L 44.503906 78.925781 C 44.796875 79.121094 45.101562 79.203125 45.453125 79.226562 C 45.773438 79.226562 46.125 79.121094 46.445312 78.867188 C 46.601562 78.738281 46.902344 78.417969 47.304688 77.910156 C 47.722656 77.449219 48.027344 77.066406 48.207031 76.785156 L 49.214844 77.34375 L 43.898438 86.832031 L 42.890625 86.265625 C 43.019531 85.988281 43.207031 85.5625 43.445312 84.996094 C 43.707031 84.421875 43.832031 84.003906 43.878906 83.742188 C 43.929688 83.351562 43.878906 83.023438 43.722656 82.75 C 43.5625 82.472656 43.289062 82.242188 42.921875 82.015625 L 26.679688 72.902344 L 26.214844 73.746094 C 26.066406 74.050781 25.863281 74.402344 25.625 74.820312 C 25.410156 75.296875 25.222656 75.714844 25.027344 76.164062 C 24.886719 76.449219 24.902344 76.894531 25.027344 77.425781 C 25.171875 77.949219 25.378906 78.484375 25.65625 78.992188 C 25.945312 79.5 26.230469 80 26.597656 80.492188 C 26.933594 80.957031 27.253906 81.351562 27.507812 81.613281 L 26.953125 82.628906 L 21.527344 79.589844 L 31.351562 62.03125 Z M 36.792969 65.085938 "/>
<path style=" stroke:none;fill-rule:nonzero;fill:rgb(9.411765%,7.058824%,6.27451%);fill-opacity:1;" d="M 48.730469 50.746094 C 47.691406 49.796875 46.617188 49.320312 45.453125 49.394531 C 44.316406 49.460938 43.257812 49.976562 42.265625 51.042969 L 40.363281 53.089844 L 47.640625 59.792969 L 49.101562 58.203125 C 50.109375 57.105469 50.609375 55.859375 50.589844 54.507812 C 50.542969 53.089844 49.925781 51.84375 48.730469 50.746094 M 67.167969 56.074219 L 62.972656 60.652344 C 60.433594 60.210938 58.21875 59.875 56.320312 59.628906 C 54.410156 59.390625 52.394531 59.179688 50.296875 58.988281 L 48.699219 60.765625 L 54.058594 65.707031 C 54.359375 65.960938 54.640625 66.132812 54.941406 66.242188 C 55.230469 66.339844 55.566406 66.304688 55.933594 66.109375 C 56.121094 66.027344 56.402344 65.824219 56.777344 65.527344 C 57.164062 65.199219 57.464844 64.929688 57.710938 64.652344 L 58.554688 65.453125 L 51.992188 72.597656 L 51.148438 71.84375 C 51.304688 71.617188 51.515625 71.320312 51.820312 70.9375 C 52.105469 70.511719 52.269531 70.214844 52.34375 70.042969 C 52.460938 69.707031 52.460938 69.402344 52.359375 69.117188 C 52.269531 68.796875 52.042969 68.527344 51.753906 68.257812 L 39.429688 56.941406 C 39.175781 56.695312 38.875 56.488281 38.601562 56.382812 C 38.316406 56.285156 37.988281 56.308594 37.59375 56.464844 C 37.332031 56.621094 37.03125 56.824219 36.695312 57.0625 C 36.34375 57.34375 36.039062 57.578125 35.832031 57.761719 L 35 56.980469 L 42.167969 49.164062 C 42.855469 48.445312 43.542969 47.828125 44.25 47.371094 C 45.003906 46.855469 45.757812 46.492188 46.535156 46.28125 C 47.339844 46.101562 48.09375 46.101562 48.894531 46.257812 C 49.671875 46.410156 50.445312 46.855469 51.164062 47.527344 C 51.820312 48.125 52.289062 48.730469 52.625 49.433594 C 52.941406 50.082031 53.097656 50.789062 53.097656 51.484375 C 53.132812 52.179688 53.015625 52.886719 52.8125 53.621094 C 52.605469 54.359375 52.3125 55.097656 51.902344 55.859375 C 53.785156 56.074219 55.382812 56.21875 56.65625 56.367188 C 57.898438 56.488281 59.457031 56.671875 61.292969 56.875 C 62.09375 56.941406 62.734375 56.941406 63.21875 56.875 C 63.710938 56.808594 64.160156 56.695312 64.5625 56.539062 C 64.847656 56.433594 65.183594 56.234375 65.519531 55.992188 C 65.839844 55.738281 66.109375 55.480469 66.316406 55.320312 Z M 67.167969 56.074219 "/>
<path style=" stroke:none;fill-rule:nonzero;fill:rgb(9.411765%,7.058824%,6.27451%);fill-opacity:1;" d="M 71.296875 27.277344 C 71.164062 27.382812 70.976562 27.585938 70.722656 27.949219 C 70.445312 28.277344 70.289062 28.539062 70.207031 28.757812 C 70.019531 29.195312 69.886719 29.53125 69.820312 29.75 C 69.804688 29.9375 69.765625 30.429688 69.730469 31.167969 C 69.699219 32.617188 69.730469 34.050781 69.820312 35.476562 C 69.9375 36.878906 70.082031 38.675781 70.253906 40.84375 C 70.304688 41.632812 70.386719 42.246094 70.527344 42.671875 C 70.65625 43.113281 70.945312 43.640625 71.394531 44.3125 L 73.871094 47.949219 C 74.097656 48.285156 74.371094 48.5 74.65625 48.644531 C 74.941406 48.800781 75.277344 48.84375 75.714844 48.753906 C 75.96875 48.710938 76.335938 48.597656 76.917969 48.351562 C 77.425781 48.121094 77.890625 47.917969 78.179688 47.738281 L 78.835938 48.695312 L 69.917969 54.742188 L 69.265625 53.785156 C 69.503906 53.601562 69.855469 53.300781 70.320312 52.941406 C 70.789062 52.523438 71.089844 52.242188 71.230469 52.015625 C 71.46875 51.679688 71.566406 51.34375 71.5 51.015625 C 71.484375 50.695312 71.363281 50.359375 71.125 50.023438 L 67.96875 45.417969 C 67.855469 45.246094 67.617188 45.03125 67.167969 44.761719 C 66.730469 44.515625 66.242188 44.253906 65.675781 43.910156 C 64.429688 43.261719 63.070312 42.542969 61.609375 41.789062 C 60.113281 41.015625 58.839844 40.363281 57.777344 39.835938 C 57.121094 39.535156 56.621094 39.304688 56.203125 39.199219 C 55.785156 39.109375 55.390625 39.050781 54.957031 39.050781 C 54.636719 39.066406 54.320312 39.132812 53.984375 39.265625 C 53.613281 39.402344 53.3125 39.558594 53.066406 39.691406 L 52.410156 38.746094 L 60.546875 33.21875 L 61.203125 34.125 C 60.285156 34.804688 59.710938 35.304688 59.390625 35.660156 C 59.085938 36.003906 59.003906 36.289062 59.136719 36.496094 C 59.167969 36.558594 59.257812 36.648438 59.421875 36.722656 C 59.546875 36.832031 59.742188 36.960938 59.980469 37.109375 C 60.25 37.257812 60.570312 37.371094 60.9375 37.574219 C 61.308594 37.804688 61.644531 37.976562 61.980469 38.167969 C 62.953125 38.675781 63.90625 39.175781 64.878906 39.664062 C 65.871094 40.171875 67.148438 40.804688 68.707031 41.609375 C 68.558594 38.378906 68.445312 35.863281 68.339844 34.101562 C 68.207031 32.332031 68.058594 31.316406 67.886719 31.0625 C 67.757812 30.863281 67.550781 30.742188 67.3125 30.726562 C 67.066406 30.726562 66.8125 30.742188 66.511719 30.855469 C 66.222656 30.929688 65.90625 31.085938 65.570312 31.292969 C 65.265625 31.464844 64.960938 31.652344 64.667969 31.78125 L 64.027344 30.808594 L 70.65625 26.324219 Z M 71.296875 27.277344 "/>
<path style=" stroke:none;fill-rule:nonzero;fill:rgb(9.411765%,7.058824%,6.27451%);fill-opacity:1;" d="M 105.097656 34.054688 C 105.433594 32.957031 105.546875 31.785156 105.496094 30.480469 C 105.433594 29.21875 105.195312 27.84375 104.792969 26.34375 C 104.359375 24.820312 103.835938 23.492188 103.179688 22.28125 C 102.523438 21.109375 101.769531 20.109375 100.949219 19.394531 C 100.140625 18.625 99.203125 18.148438 98.230469 17.914062 C 97.207031 17.609375 96.164062 17.683594 95.027344 17.96875 C 93.765625 18.332031 92.789062 18.929688 92.066406 19.753906 C 91.347656 20.558594 90.855469 21.527344 90.570312 22.617188 C 90.289062 23.679688 90.214844 24.886719 90.289062 26.179688 C 90.386719 27.484375 90.609375 28.816406 90.996094 30.171875 C 91.414062 31.679688 91.929688 32.980469 92.519531 34.128906 C 93.140625 35.265625 93.863281 36.226562 94.707031 37.011719 C 95.527344 37.78125 96.433594 38.316406 97.425781 38.570312 C 98.441406 38.855469 99.523438 38.824219 100.710938 38.503906 C 101.835938 38.207031 102.777344 37.652344 103.515625 36.882812 C 104.292969 36.09375 104.792969 35.183594 105.097656 34.054688 M 103.082031 17.65625 C 104.359375 18.421875 105.449219 19.410156 106.425781 20.746094 C 107.351562 22.007812 108.105469 23.558594 108.585938 25.328125 C 109.0625 27.082031 109.242188 28.761719 109.0625 30.34375 C 108.90625 31.949219 108.441406 33.40625 107.734375 34.695312 C 107.015625 35.964844 106.105469 37.035156 104.964844 37.980469 C 103.851562 38.824219 102.546875 39.46875 101.097656 39.921875 C 99.558594 40.324219 98.058594 40.429688 96.582031 40.214844 C 95.109375 40.003906 93.746094 39.46875 92.519531 38.714844 C 91.296875 37.980469 90.234375 36.953125 89.28125 35.628906 C 88.355469 34.359375 87.636719 32.875 87.183594 31.234375 C 86.710938 29.433594 86.527344 27.71875 86.710938 26.179688 C 86.863281 24.589844 87.300781 23.132812 88.035156 21.804688 C 88.726562 20.519531 89.632812 19.410156 90.804688 18.519531 C 91.945312 17.609375 93.222656 17.003906 94.648438 16.578125 C 96.117188 16.175781 97.589844 16.09375 99.050781 16.257812 C 100.5 16.453125 101.851562 16.914062 103.082031 17.65625 "/>
<path style=" stroke:none;fill-rule:nonzero;fill:rgb(9.411765%,7.058824%,6.27451%);fill-opacity:1;" d="M 130.734375 18.539062 L 129.523438 18.585938 C 129.242188 17.734375 128.734375 16.851562 127.964844 15.898438 C 127.210938 14.957031 126.507812 14.417969 125.835938 14.351562 C 125.515625 14.351562 125.113281 14.308594 124.636719 14.308594 C 124.1875 14.285156 123.648438 14.308594 123.066406 14.351562 L 119.199219 14.464844 L 119.515625 23.707031 L 122.171875 23.636719 C 122.976562 23.617188 123.613281 23.503906 124.046875 23.339844 C 124.457031 23.136719 124.859375 22.855469 125.164062 22.488281 C 125.359375 22.25 125.53125 21.882812 125.710938 21.382812 C 125.867188 20.847656 125.964844 20.324219 126.015625 19.75 L 127.226562 19.710938 L 127.53125 28.757812 L 126.316406 28.773438 C 126.253906 28.328125 126.128906 27.78125 125.933594 27.191406 C 125.710938 26.59375 125.5 26.183594 125.261719 25.878906 C 124.941406 25.527344 124.507812 25.242188 124.015625 25.117188 C 123.5 24.96875 122.925781 24.929688 122.238281 24.953125 L 119.566406 25.0625 L 119.820312 32.984375 C 119.871094 33.328125 119.933594 33.6875 120.089844 33.960938 C 120.238281 34.230469 120.507812 34.417969 120.859375 34.613281 C 121.015625 34.671875 121.386719 34.777344 121.917969 34.84375 C 122.476562 34.925781 122.894531 34.976562 123.179688 34.992188 L 123.210938 36.128906 L 113.222656 36.464844 L 113.207031 35.328125 C 113.511719 35.269531 113.929688 35.222656 114.476562 35.179688 C 115.003906 35.097656 115.355469 35.015625 115.519531 34.949219 C 115.855469 34.777344 116.074219 34.566406 116.207031 34.277344 C 116.347656 34 116.410156 33.6875 116.394531 33.261719 L 115.820312 16.621094 C 115.820312 16.261719 115.757812 15.972656 115.609375 15.6875 C 115.484375 15.417969 115.222656 15.21875 114.832031 15.054688 C 114.535156 14.910156 114.160156 14.800781 113.660156 14.695312 C 113.160156 14.613281 112.78125 14.546875 112.46875 14.546875 L 112.445312 13.382812 L 130.53125 12.792969 Z M 130.734375 18.539062 "/>
<path style=" stroke:none;fill-rule:nonzero;fill:rgb(9.411765%,7.058824%,6.27451%);fill-opacity:1;" d="M 161.125 35.757812 L 158.855469 42.175781 L 140.46875 36.953125 L 140.789062 35.863281 C 141.109375 35.921875 141.535156 35.988281 142.082031 36.070312 C 142.589844 36.136719 142.976562 36.152344 143.140625 36.136719 C 143.492188 36.070312 143.8125 35.9375 144.015625 35.710938 C 144.195312 35.527344 144.351562 35.226562 144.484375 34.824219 L 149.007812 18.855469 C 149.105469 18.519531 149.136719 18.199219 149.089844 17.914062 C 149.039062 17.59375 148.882812 17.3125 148.566406 17.042969 C 148.335938 16.804688 147.984375 16.59375 147.539062 16.363281 C 147.105469 16.125 146.738281 15.96875 146.46875 15.855469 L 146.769531 14.757812 L 163.894531 19.601562 L 162.386719 24.976562 L 161.191406 24.65625 C 161.222656 23.789062 161.011719 22.820312 160.570312 21.753906 C 160.152344 20.632812 159.617188 19.960938 159.027344 19.707031 C 158.707031 19.601562 158.324219 19.453125 157.890625 19.304688 C 157.464844 19.15625 156.929688 18.984375 156.390625 18.847656 L 152.898438 17.832031 L 150.382812 26.648438 L 152.867188 27.34375 C 153.6875 27.574219 154.292969 27.679688 154.710938 27.636719 C 155.128906 27.574219 155.503906 27.417969 155.890625 27.128906 C 156.175781 26.875 156.519531 26.539062 156.839844 26.066406 C 157.128906 25.632812 157.347656 25.1875 157.546875 24.695312 L 158.726562 25.058594 L 156.242188 33.792969 L 155.0625 33.449219 C 155.152344 32.941406 155.203125 32.375 155.167969 31.761719 C 155.152344 31.160156 155.09375 30.726562 154.964844 30.382812 C 154.757812 29.890625 154.480469 29.515625 154.085938 29.285156 C 153.734375 29.03125 153.1875 28.820312 152.53125 28.628906 L 150.023438 27.933594 L 148.128906 34.585938 C 147.957031 35.226562 147.84375 35.792969 147.828125 36.226562 C 147.8125 36.601562 147.925781 36.953125 148.128906 37.242188 C 148.351562 37.511719 148.671875 37.757812 149.136719 37.953125 C 149.574219 38.125 150.226562 38.316406 151.105469 38.570312 C 151.40625 38.667969 151.875 38.796875 152.433594 38.972656 C 153.015625 39.109375 153.488281 39.265625 153.890625 39.289062 C 154.292969 39.386719 154.710938 39.40625 155.167969 39.429688 C 155.621094 39.429688 155.972656 39.386719 156.175781 39.242188 C 156.839844 38.878906 157.527344 38.25 158.355469 37.371094 C 159.160156 36.519531 159.699219 35.863281 160.003906 35.421875 Z M 161.125 35.757812 "/>
<path style=" stroke:none;fill-rule:nonzero;fill:rgb(9.411765%,7.058824%,6.27451%);fill-opacity:1;" d="M 181.882812 41.886719 C 182.652344 40.550781 183.160156 39.265625 183.449219 37.972656 C 183.710938 36.660156 183.726562 35.421875 183.511719 34.226562 C 183.324219 33.070312 182.859375 32.039062 182.1875 31.015625 C 181.496094 30.023438 180.554688 29.195312 179.417969 28.539062 C 179.046875 28.335938 178.605469 28.074219 178.121094 27.820312 C 177.613281 27.574219 177.261719 27.34375 177.015625 27.238281 L 168.132812 42.585938 C 167.640625 43.410156 167.542969 44.148438 167.847656 44.765625 C 168.167969 45.394531 168.820312 45.992188 169.863281 46.574219 C 171.066406 47.296875 172.214844 47.679688 173.371094 47.761719 C 174.492188 47.84375 175.550781 47.707031 176.539062 47.269531 C 177.582031 46.8125 178.523438 46.132812 179.382812 45.273438 C 180.253906 44.410156 181.078125 43.265625 181.882812 41.886719 M 185.308594 43.894531 C 184.316406 45.609375 183.144531 46.871094 181.785156 47.761719 C 180.425781 48.625 179 49.179688 177.546875 49.394531 C 176.023438 49.597656 174.523438 49.539062 173 49.164062 C 171.492188 48.804688 170.074219 48.269531 168.699219 47.453125 L 160.421875 42.675781 L 161.011719 41.660156 C 161.265625 41.839844 161.652344 42.019531 162.121094 42.222656 C 162.585938 42.394531 162.90625 42.519531 163.078125 42.519531 C 163.429688 42.601562 163.75 42.519531 164.019531 42.355469 C 164.28125 42.175781 164.503906 41.945312 164.691406 41.585938 L 173.035156 27.1875 C 173.253906 26.851562 173.351562 26.558594 173.386719 26.222656 C 173.433594 25.925781 173.304688 25.582031 173.097656 25.246094 C 172.886719 24.933594 172.617188 24.648438 172.328125 24.402344 C 172.027344 24.097656 171.753906 23.917969 171.492188 23.746094 L 172.109375 22.746094 L 180.808594 27.800781 C 182.015625 28.484375 183.078125 29.390625 184.046875 30.433594 C 184.972656 31.464844 185.710938 32.539062 186.21875 33.6875 C 186.90625 35.183594 187.191406 36.832031 187.070312 38.542969 C 186.953125 40.304688 186.382812 42.066406 185.308594 43.894531 "/>
<path style=" stroke:none;fill-rule:nonzero;fill:rgb(9.411765%,7.058824%,6.27451%);fill-opacity:1;" d="M 212.851562 55.84375 C 212.644531 55.65625 212.277344 55.367188 211.777344 55.03125 C 211.269531 54.738281 210.800781 54.523438 210.351562 54.417969 C 209.941406 54.3125 209.390625 54.523438 208.738281 54.957031 C 208.082031 55.390625 207.34375 56.023438 206.558594 56.828125 L 199.453125 63.914062 C 198.527344 64.808594 197.570312 65.398438 196.542969 65.707031 C 195.472656 65.988281 194.445312 66.050781 193.390625 65.863281 C 192.382812 65.652344 191.421875 65.289062 190.585938 64.847656 C 189.726562 64.339844 189.023438 63.792969 188.414062 63.175781 C 187.417969 62.175781 186.6875 61.183594 186.171875 60.152344 C 185.664062 59.136719 185.367188 58.144531 185.308594 57.171875 C 185.230469 56.21875 185.328125 55.335938 185.664062 54.523438 C 185.964844 53.703125 186.410156 52.957031 187.023438 52.351562 L 196.699219 42.722656 C 196.960938 42.453125 197.152344 42.199219 197.25 41.945312 C 197.339844 41.660156 197.324219 41.324219 197.214844 40.890625 C 197.117188 40.59375 196.960938 40.28125 196.734375 39.875 C 196.480469 39.535156 196.289062 39.265625 196.109375 39.027344 L 196.914062 38.234375 L 203.664062 44.996094 L 202.828125 45.789062 C 202.625 45.585938 202.304688 45.378906 201.917969 45.117188 C 201.566406 44.847656 201.265625 44.675781 201.074219 44.566406 C 200.722656 44.40625 200.386719 44.386719 200.09375 44.484375 C 199.773438 44.632812 199.519531 44.820312 199.25 45.09375 L 190.21875 54.082031 C 189.777344 54.523438 189.375 55.007812 188.988281 55.566406 C 188.589844 56.128906 188.351562 56.808594 188.203125 57.480469 C 188.078125 58.203125 188.121094 58.964844 188.382812 59.769531 C 188.621094 60.539062 189.210938 61.382812 190.113281 62.308594 C 190.957031 63.136719 191.824219 63.726562 192.621094 64.046875 C 193.472656 64.355469 194.28125 64.421875 195.054688 64.355469 C 195.789062 64.226562 196.429688 64.046875 197.019531 63.726562 C 197.617188 63.382812 198.140625 63.003906 198.609375 62.5625 L 205.3125 55.859375 C 206.164062 55.007812 206.804688 54.277344 207.222656 53.605469 C 207.628906 52.941406 207.828125 52.410156 207.746094 51.992188 C 207.679688 51.53125 207.457031 51.015625 207.105469 50.441406 C 206.753906 49.871094 206.46875 49.460938 206.222656 49.199219 L 207.039062 48.394531 L 213.6875 55.03125 Z M 212.851562 55.84375 "/>
<path style=" stroke:none;fill-rule:nonzero;fill:rgb(9.411765%,7.058824%,6.27451%);fill-opacity:1;" d="M 202.144531 81.121094 C 201.457031 79.941406 200.988281 78.671875 200.800781 77.292969 C 200.621094 75.941406 200.734375 74.589844 201.121094 73.238281 C 201.503906 71.871094 202.175781 70.601562 203.136719 69.328125 C 204.09375 68.101562 205.378906 67.003906 206.960938 66.050781 C 208.542969 65.09375 210.117188 64.488281 211.699219 64.21875 C 213.28125 63.914062 214.789062 63.914062 216.214844 64.21875 C 217.65625 64.511719 218.949219 65.085938 220.144531 65.945312 C 221.335938 66.773438 222.324219 67.824219 223.097656 69.15625 C 223.6875 70.148438 224.085938 71.082031 224.339844 72.007812 C 224.5625 72.917969 224.695312 73.894531 224.644531 74.84375 L 225.972656 74.84375 L 226.609375 75.984375 L 219.65625 80.292969 L 218.964844 79.203125 C 219.554688 78.605469 220.164062 77.949219 220.785156 77.195312 C 221.433594 76.417969 221.890625 75.648438 222.195312 74.910156 C 222.5625 74.105469 222.761719 73.253906 222.761719 72.460938 C 222.726562 71.617188 222.480469 70.828125 222.007812 70.042969 C 221.488281 69.15625 220.785156 68.414062 219.941406 67.921875 C 219.074219 67.355469 218.082031 67.058594 216.96875 66.953125 C 215.878906 66.878906 214.671875 67.003906 213.3125 67.40625 C 211.984375 67.789062 210.574219 68.414062 209.148438 69.304688 C 207.871094 70.042969 206.832031 70.863281 205.9375 71.84375 C 205.070312 72.796875 204.429688 73.789062 203.988281 74.84375 C 203.535156 75.941406 203.332031 77.007812 203.390625 78.105469 C 203.40625 79.15625 203.726562 80.246094 204.324219 81.195312 C 204.78125 81.949219 205.316406 82.578125 205.921875 83.0625 C 206.527344 83.539062 207.167969 83.898438 207.839844 84.128906 C 208.527344 84.339844 209.25 84.488281 209.96875 84.53125 C 210.707031 84.546875 211.445312 84.488281 212.199219 84.339844 L 212.320312 85.691406 C 209.871094 86.070312 207.839844 85.855469 206.222656 85.070312 C 204.578125 84.234375 203.234375 82.921875 202.144531 81.121094 "/>
<path style=" stroke:none;fill-rule:nonzero;fill:rgb(9.411765%,7.058824%,6.27451%);fill-opacity:1;" d="M 220.386719 98.460938 L 227.894531 92.332031 L 218.257812 91.800781 Z M 214.191406 110.136719 L 211.300781 101 L 212.382812 100.664062 C 212.695312 101.4375 213.011719 102.097656 213.347656 102.542969 C 213.652344 103.050781 213.9375 103.246094 214.160156 103.171875 C 214.257812 103.148438 214.355469 103.117188 214.480469 103.023438 C 214.628906 102.96875 214.742188 102.917969 214.816406 102.8125 L 219.175781 99.453125 L 216.707031 91.71875 C 215.871094 91.609375 215.183594 91.5625 214.59375 91.5625 L 212.964844 91.5625 C 212.449219 91.5625 212.046875 91.5625 211.777344 91.609375 C 211.472656 91.652344 211.25 91.71875 211.054688 91.765625 C 210.660156 91.90625 210.433594 92.332031 210.414062 93.070312 C 210.382812 93.773438 210.496094 94.542969 210.703125 95.371094 L 209.621094 95.734375 L 206.992188 87.464844 L 208.082031 87.105469 C 208.179688 87.375 208.351562 87.703125 208.597656 88.054688 C 208.816406 88.441406 209.054688 88.734375 209.292969 88.972656 C 209.679688 89.269531 210.078125 89.472656 210.464844 89.621094 C 210.867188 89.765625 211.332031 89.839844 211.957031 89.898438 C 215.0625 90.085938 218.542969 90.316406 222.417969 90.570312 C 226.277344 90.824219 229.738281 91.046875 232.746094 91.226562 L 233.128906 92.480469 L 216.460938 105.835938 C 216.125 106.089844 215.855469 106.394531 215.683594 106.664062 C 215.472656 106.941406 215.332031 107.300781 215.199219 107.71875 C 215.152344 108 215.101562 108.359375 215.152344 108.761719 C 215.183594 109.179688 215.199219 109.523438 215.300781 109.769531 Z M 214.191406 110.136719 "/>
<path style=" stroke:none;fill-rule:nonzero;fill:rgb(9.411765%,7.058824%,6.27451%);fill-opacity:1;" d="M 232.054688 127.300781 L 231.972656 126.179688 C 232.324219 126.054688 232.792969 125.84375 233.300781 125.539062 C 233.800781 125.253906 234.277344 124.917969 234.742188 124.53125 C 235.226562 124.210938 235.613281 123.800781 235.964844 123.382812 C 236.300781 122.964844 236.472656 122.582031 236.519531 122.21875 C 236.519531 121.910156 236.519531 121.464844 236.488281 120.96875 C 236.488281 120.425781 236.472656 119.960938 236.421875 119.515625 L 236.339844 118.589844 L 217.953125 120.066406 C 217.585938 120.113281 217.25 120.195312 216.976562 120.367188 C 216.707031 120.558594 216.46875 120.859375 216.339844 121.238281 C 216.304688 121.417969 216.207031 121.867188 216.152344 122.476562 C 216.070312 123.113281 216.035156 123.621094 216.050781 123.941406 L 214.929688 124.03125 L 214.035156 113.199219 L 215.183594 113.117188 C 215.214844 113.386719 215.316406 113.828125 215.414062 114.492188 C 215.519531 115.074219 215.652344 115.527344 215.75 115.738281 C 215.921875 116.089844 216.152344 116.320312 216.4375 116.476562 C 216.707031 116.625 217.078125 116.664062 217.527344 116.648438 L 236.070312 115.148438 L 236.003906 114.191406 C 235.964844 113.871094 235.949219 113.460938 235.867188 112.96875 C 235.816406 112.476562 235.75 112.011719 235.667969 111.542969 C 235.59375 111.207031 235.347656 110.855469 234.921875 110.511719 C 234.503906 110.160156 234.054688 109.832031 233.546875 109.542969 C 233.03125 109.265625 232.507812 109.035156 231.925781 108.816406 C 231.382812 108.59375 230.917969 108.480469 230.53125 108.398438 L 230.441406 107.257812 L 236.660156 106.75 L 238.265625 126.808594 Z M 232.054688 127.300781 "/>
<path style=" stroke:none;fill-rule:nonzero;fill:rgb(9.411765%,7.058824%,6.27451%);fill-opacity:1;" d="M 213.792969 140.136719 L 214.820312 129.792969 L 215.972656 129.902344 C 215.957031 130.195312 215.957031 130.621094 215.941406 131.171875 C 215.925781 131.746094 215.957031 132.113281 216.007812 132.351562 C 216.113281 132.738281 216.308594 133.007812 216.515625 133.179688 C 216.753906 133.390625 217.070312 133.492188 217.488281 133.539062 L 234.148438 135.1875 C 234.5 135.25 234.820312 135.1875 235.097656 135.105469 C 235.367188 135.023438 235.605469 134.769531 235.84375 134.34375 C 235.992188 134.039062 236.164062 133.644531 236.3125 133.15625 C 236.476562 132.6875 236.597656 132.292969 236.613281 131.949219 L 237.769531 132.097656 L 236.761719 142.398438 L 235.605469 142.289062 C 235.605469 141.953125 235.605469 141.554688 235.589844 141.078125 C 235.589844 140.644531 235.523438 140.191406 235.46875 139.855469 C 235.367188 139.4375 235.171875 139.136719 234.902344 138.964844 C 234.632812 138.785156 234.3125 138.695312 233.976562 138.652344 L 217.332031 136.996094 C 216.980469 136.964844 216.644531 136.996094 216.351562 137.128906 C 216.082031 137.25 215.808594 137.488281 215.621094 137.875 C 215.523438 138.101562 215.375 138.449219 215.21875 138.949219 C 215.074219 139.464844 214.992188 139.882812 214.949219 140.21875 Z M 213.792969 140.136719 "/>
<path style=" stroke:none;fill-rule:nonzero;fill:rgb(9.411765%,7.058824%,6.27451%);fill-opacity:1;" d="M 212.929688 158.972656 C 213.699219 159.832031 214.625 160.601562 215.734375 161.25 C 216.855469 161.871094 218.132812 162.421875 219.601562 162.847656 C 221.109375 163.304688 222.550781 163.59375 223.894531 163.683594 C 225.253906 163.796875 226.46875 163.707031 227.523438 163.414062 C 228.597656 163.109375 229.507812 162.601562 230.277344 161.90625 C 231.03125 161.191406 231.570312 160.300781 231.925781 159.203125 C 232.292969 157.957031 232.34375 156.816406 232.054688 155.75 C 231.734375 154.703125 231.195312 153.769531 230.410156 152.925781 C 229.671875 152.121094 228.726562 151.382812 227.574219 150.769531 C 226.417969 150.140625 225.1875 149.597656 223.828125 149.179688 C 222.355469 148.714844 220.953125 148.460938 219.664062 148.335938 C 218.386719 148.246094 217.191406 148.3125 216.085938 148.605469 C 215.011719 148.902344 214.070312 149.394531 213.28125 150.089844 C 212.511719 150.769531 211.957031 151.671875 211.585938 152.882812 C 211.234375 154.007812 211.183594 155.054688 211.421875 156.085938 C 211.667969 157.175781 212.160156 158.121094 212.929688 158.972656 M 227.828125 166.117188 C 226.515625 166.789062 225.058594 167.148438 223.445312 167.289062 C 221.84375 167.386719 220.164062 167.148438 218.4375 166.632812 C 216.691406 166.09375 215.183594 165.289062 213.9375 164.324219 C 212.675781 163.304688 211.703125 162.144531 210.996094 160.816406 C 210.292969 159.5625 209.890625 158.210938 209.726562 156.75 C 209.605469 155.316406 209.726562 153.875 210.195312 152.457031 C 210.660156 150.917969 211.398438 149.582031 212.375 148.460938 C 213.347656 147.335938 214.496094 146.476562 215.816406 145.855469 C 217.109375 145.273438 218.550781 144.886719 220.148438 144.789062 C 221.761719 144.722656 223.363281 144.925781 225.015625 145.417969 C 226.804688 145.96875 228.3125 146.769531 229.539062 147.789062 C 230.761719 148.738281 231.734375 149.910156 232.472656 151.1875 C 233.195312 152.484375 233.585938 153.859375 233.75 155.316406 C 233.867188 156.75 233.75 158.210938 233.300781 159.601562 C 232.84375 161.0625 232.152344 162.371094 231.195312 163.519531 C 230.261719 164.609375 229.113281 165.503906 227.828125 166.117188 "/>
<path style=" stroke:none;fill-rule:nonzero;fill:rgb(9.411765%,7.058824%,6.27451%);fill-opacity:1;" d="M 212.515625 196.4375 C 212.6875 196.183594 212.851562 195.734375 213.039062 195.109375 C 213.285156 194.496094 213.367188 194.019531 213.375 193.707031 C 213.351562 193.199219 213.039062 192.742188 212.464844 192.199219 C 211.890625 191.675781 211.105469 191.085938 210.113281 190.457031 L 195.855469 181.386719 L 196.625 180.207031 L 220.050781 178.542969 L 210 172.140625 C 208.882812 171.445312 207.949219 170.945312 207.277344 170.707031 C 206.589844 170.453125 206.015625 170.40625 205.566406 170.535156 C 205.246094 170.617188 204.789062 170.945312 204.1875 171.46875 C 203.582031 172.035156 203.214844 172.394531 203.074219 172.609375 L 202.101562 171.996094 L 207.1875 163.980469 L 208.164062 164.613281 C 208.03125 164.867188 207.84375 165.359375 207.628906 166.039062 C 207.425781 166.734375 207.3125 167.175781 207.359375 167.421875 C 207.410156 167.914062 207.648438 168.375 208.113281 168.800781 C 208.582031 169.289062 209.425781 169.90625 210.703125 170.714844 L 220.289062 176.835938 C 220.722656 177.117188 221.191406 177.28125 221.699219 177.425781 C 222.199219 177.527344 222.660156 177.527344 223.042969 177.453125 C 223.558594 177.304688 224.085938 177.027344 224.640625 176.609375 C 225.257812 176.222656 225.640625 175.796875 225.878906 175.476562 L 226.855469 176.101562 L 223.332031 181.632812 L 201.535156 183.136719 L 210.785156 189.011719 C 211.925781 189.757812 212.832031 190.21875 213.539062 190.464844 C 214.226562 190.703125 214.75 190.75 215.152344 190.59375 C 215.457031 190.464844 215.90625 190.152344 216.449219 189.695312 C 216.980469 189.203125 217.347656 188.824219 217.554688 188.53125 L 218.527344 189.160156 L 213.503906 197.066406 Z M 212.515625 196.4375 "/>
<path style=" stroke:none;fill-rule:nonzero;fill:rgb(9.411765%,7.058824%,6.27451%);fill-opacity:1;" d="M 125.949219 1.933594 C 57.5625 1.933594 1.933594 57.578125 1.933594 125.949219 C 1.933594 194.320312 57.5625 249.949219 125.949219 249.949219 C 194.320312 249.949219 249.933594 194.320312 249.933594 125.949219 C 249.933594 57.578125 194.320312 1.933594 125.949219 1.933594 M 125.949219 251.867188 C 56.503906 251.867188 0 195.367188 0 125.949219 C 0 56.539062 56.503906 0 125.949219 0 C 195.375 0 251.867188 56.539062 251.867188 125.949219 C 251.867188 195.367188 195.375 251.867188 125.949219 251.867188 "/>
<path style=" stroke:none;fill-rule:nonzero;fill:rgb(9.411765%,7.058824%,6.27451%);fill-opacity:1;" d="M 86.660156 204.636719 L 87.570312 205.164062 C 88.226562 206.039062 87.0625 207.40625 84.054688 209.308594 L 86.226562 210.816406 L 94.199219 215.289062 C 93.878906 217.265625 92.738281 217.734375 90.855469 216.691406 C 90.921875 216.398438 88.59375 215.003906 83.875 212.464844 L 81.121094 211.398438 L 78.800781 212.609375 C 77.269531 212.144531 76.53125 210.957031 76.582031 209.054688 L 76.976562 208.277344 C 79.636719 208.742188 82.867188 207.53125 86.660156 204.636719 M 85.636719 216.035156 L 86.675781 216.667969 C 87.585938 217.109375 86.710938 218.75 84.054688 221.535156 C 83.152344 222.796875 81.441406 224.441406 78.917969 226.539062 C 79.890625 229.925781 81.621094 232.84375 84.113281 235.292969 L 85.554688 236.726562 C 84.898438 238.609375 82.660156 238.652344 78.820312 236.855469 C 77.984375 236.5625 77.007812 233.628906 75.859375 228.097656 L 75.777344 228.023438 C 74.574219 228.597656 72.738281 229.039062 70.238281 229.351562 C 69.4375 229.351562 68.59375 229.1875 67.742188 228.828125 C 66.339844 227.867188 65.722656 226.179688 65.90625 223.796875 L 66.460938 222.738281 L 66.675781 222.691406 C 69.265625 224.851562 72.148438 225.460938 75.328125 224.535156 L 74.542969 216.398438 L 74.886719 215.734375 C 75.277344 215.355469 75.664062 215.289062 75.96875 215.460938 L 76.769531 215.945312 C 77.058594 215.972656 77.269531 217.132812 77.425781 219.476562 L 78.113281 223.394531 C 80.007812 222.648438 82.308594 220.238281 85.03125 216.152344 Z M 72.320312 200.402344 L 70.109375 203.664062 L 71.394531 204.433594 C 72.894531 204.128906 74.5 203.597656 76.179688 202.792969 L 76.148438 202.648438 Z M 72.722656 194.683594 L 73.84375 195.339844 C 74.65625 196.183594 74.542969 197.214844 73.507812 198.378906 L 77.238281 200.851562 C 77.613281 201.082031 77.695312 201.574219 77.457031 202.253906 L 80.128906 201.023438 L 80.785156 201.386719 C 81.152344 202.96875 78.980469 204.464844 74.269531 205.964844 L 76.402344 207.390625 C 75.664062 209.242188 74.402344 209.480469 72.558594 207.996094 L 70.847656 206.875 L 66.929688 207.390625 L 73.648438 211.472656 C 74.484375 212.519531 73.632812 213.054688 71.058594 212.929688 L 66.109375 213.667969 L 66.429688 216.398438 L 70.289062 218.109375 C 70.65625 219.839844 69.230469 219.984375 66.027344 218.59375 L 65.824219 218.929688 C 65.421875 220.640625 64.257812 222.625 62.316406 224.886719 C 59.242188 226.539062 56.082031 225.738281 52.792969 222.484375 L 53.210938 218.75 L 53.566406 218.75 L 56.488281 221.148438 C 58.921875 222.394531 60.71875 222.222656 61.855469 220.574219 L 63.308594 218.042969 C 61.996094 217.496094 58.234375 216.652344 52.074219 215.527344 C 51.417969 215.207031 51.164062 214.824219 51.246094 214.324219 L 51.867188 213.160156 C 51.949219 211.957031 54.335938 212.226562 59.003906 214.027344 L 64.144531 215.609375 C 64.480469 215.460938 64.125 213.898438 63.003906 210.957031 L 63.308594 210.367188 L 63.707031 210.242188 C 64.160156 210.300781 64.75 210.875 65.453125 211.957031 L 68.722656 211.21875 L 68.828125 211.023438 C 66.222656 208.613281 62.617188 207.261719 58.0625 206.917969 L 56.417969 206.417969 C 55.277344 205.523438 54.746094 204.171875 54.84375 202.484375 L 55.246094 201.738281 C 55.410156 201.523438 56.21875 202.042969 57.628906 203.128906 C 59.898438 204.71875 63.101562 205.375 67.230469 205.105469 L 67.535156 204.933594 L 61.339844 201.386719 L 58.503906 200.199219 L 58.0625 199.246094 L 58.539062 198.3125 C 59.152344 197.855469 59.742188 197.671875 60.300781 197.789062 C 60.765625 198.328125 63.273438 199.835938 67.820312 202.179688 L 69.453125 198.691406 L 63.980469 196.28125 L 63.757812 195.355469 L 64.257812 194.46875 L 65.757812 193.988281 L 70.558594 196.707031 L 71.902344 194.789062 Z M 72.722656 194.683594 "/>
<path style=" stroke:none;fill-rule:nonzero;fill:rgb(9.411765%,7.058824%,6.27451%);fill-opacity:1;" d="M 127.4375 217.875 C 126.316406 219.0625 124.429688 220.535156 121.792969 222.25 L 121.792969 222.355469 C 123.421875 223.167969 127.707031 223.167969 134.65625 222.355469 L 134.753906 221.863281 L 131.902344 217.964844 Z M 126.332031 229.632812 L 121.105469 230.238281 L 121.007812 232.335938 L 136.453125 232.410156 L 136.453125 230.027344 L 135.96875 229.632812 Z M 136.351562 234.621094 L 120.890625 235.292969 L 120.570312 237.472656 L 136.171875 237.582031 Z M 137.933594 227.222656 L 139.074219 227.222656 C 140.210938 227.132812 140.210938 228.96875 139.074219 232.632812 L 138.957031 239.761719 C 139.34375 240.777344 139.34375 242.414062 138.957031 244.675781 C 136.507812 245.890625 135.566406 244.234375 136.171875 239.761719 C 131.363281 239.480469 125.792969 239.761719 119.480469 240.40625 C 117.5 243.367188 114.574219 245.003906 110.699219 245.191406 C 108.9375 244.59375 107.542969 243.496094 106.46875 241.914062 L 106.46875 241.003906 C 106.46875 240.660156 106.984375 240.578125 107.992188 240.660156 C 110.109375 240.808594 112.617188 240.433594 115.515625 239.480469 C 118.554688 238.53125 119.449219 234.730469 118.203125 228.148438 L 118.925781 227.429688 C 118.992188 227.632812 121.195312 227.632812 125.539062 227.429688 L 136.976562 227.453125 Z M 127.355469 210.664062 L 128.714844 210.664062 C 129.96875 210.597656 130.175781 212.164062 129.339844 215.351562 L 145.023438 215.292969 L 149.285156 215.054688 C 150.242188 216.433594 149.046875 217.808594 145.6875 219.136719 L 135.394531 218.144531 L 138.925781 223.347656 C 139.007812 224.59375 138.46875 225.140625 137.261719 225.035156 L 124.882812 225.125 C 124.867188 224.855469 123.023438 224.855469 119.40625 225.125 C 118.121094 225.394531 117.261719 225.191406 116.695312 224.429688 L 116.695312 223.453125 C 116.425781 223.09375 117.785156 222.070312 120.769531 220.347656 L 123.175781 217.875 C 121.179688 217.742188 116.636719 218.101562 109.558594 218.929688 C 108.648438 219.375 107.675781 219.292969 106.683594 218.652344 L 106.46875 217.367188 L 107.992188 215.867188 C 108.058594 216.046875 111.273438 215.972656 117.613281 215.570312 L 126.816406 215.351562 L 126.128906 212.164062 L 126.128906 211.890625 C 126.332031 211.128906 126.734375 210.730469 127.355469 210.664062 "/>
<path style=" stroke:none;fill-rule:nonzero;fill:rgb(9.411765%,7.058824%,6.27451%);fill-opacity:1;" d="M 179.769531 202.335938 L 189.511719 213.347656 C 191.4375 212.019531 192.765625 210.332031 193.472656 208.234375 L 193.550781 206.601562 L 192.699219 205.375 C 191.839844 204.539062 190.347656 204.382812 188.1875 204.890625 C 187.832031 204.71875 187.226562 205.578125 186.425781 207.449219 C 186.046875 207.832031 185.628906 207.9375 185.226562 207.675781 L 184.671875 207.054688 L 185.023438 198.335938 L 184.777344 198.3125 Z M 176.296875 202.285156 L 186.332031 194.238281 C 188.21875 193.707031 188.71875 195.5 187.792969 199.6875 L 187.660156 202.144531 C 187.710938 202.398438 188.449219 202.398438 189.867188 202.144531 C 193.085938 202.105469 195.167969 203.234375 196.160156 205.554688 C 197.117188 208.847656 195.453125 212.09375 191.152344 215.246094 L 195.453125 219.941406 C 195.921875 220.582031 196.078125 221.261719 195.953125 222.03125 C 195.296875 223.03125 194.445312 223.074219 193.421875 222.203125 C 192.617188 221.089844 188.269531 215.945312 180.410156 206.800781 L 177.941406 204.210938 C 177.789062 204.71875 177.269531 205.015625 176.476562 205.078125 L 175.640625 204.25 C 175.386719 203.6875 175.609375 203.078125 176.296875 202.285156 M 173.894531 224.957031 C 173.140625 225.253906 173.511719 226.128906 174.902344 227.636719 L 177.164062 230.347656 L 178.042969 230.285156 L 183.261719 225.949219 L 184.457031 225.121094 C 184.925781 224.828125 184.136719 223.5 182.023438 221.171875 L 180.984375 219.941406 C 180.648438 219.550781 178.84375 220.796875 175.558594 223.628906 Z M 170.363281 224.746094 C 170.585938 224.382812 171.445312 223.917969 172.96875 223.328125 L 179.5 218.199219 C 179.597656 217.746094 179.957031 217.371094 180.589844 217.007812 C 181.335938 216.394531 182.777344 217.835938 184.875 221.261719 L 187.105469 223.902344 C 187.757812 224.441406 187.710938 225.121094 187.039062 225.910156 C 186.808594 225.613281 184.074219 227.734375 178.878906 232.210938 L 177.335938 233.429688 L 176.597656 233.300781 C 176.796875 233.09375 175.4375 231.449219 172.617188 228.359375 L 170.167969 225.65625 Z M 164.613281 208.421875 L 165.53125 207.675781 C 166.355469 206.9375 167.445312 207.832031 168.707031 210.378906 L 174.109375 205.964844 C 175.5 207.175781 175.304688 208.316406 173.511719 209.371094 L 164.359375 216.714844 L 162.390625 218.746094 L 161.464844 218.78125 L 160.882812 218.109375 C 160.695312 217.453125 160.742188 216.855469 161.015625 216.4375 C 161.832031 216.101562 163.71875 214.558594 166.710938 211.886719 L 164.359375 210.011719 C 164.105469 209.347656 164.1875 208.847656 164.613281 208.421875 M 173.050781 210.960938 L 173.910156 210.28125 C 174.855469 209.609375 175.738281 210.855469 176.535156 213.960938 L 176.746094 214.257812 L 179.941406 211.488281 C 181.304688 211.757812 181.566406 212.609375 180.746094 213.984375 L 174.566406 218.851562 C 173.191406 219.625 170.386719 222.074219 166.167969 226.253906 C 165.703125 226.457031 165.367188 226.472656 165.113281 226.285156 L 164.570312 225.636719 C 164.308594 224.882812 164.421875 224.277344 164.875 223.792969 C 165.398438 223.5 166.710938 222.433594 168.839844 220.613281 C 168.953125 220.34375 168.167969 219.917969 166.472656 219.3125 L 165.09375 218.507812 C 164.964844 218.019531 165.0625 217.601562 165.316406 217.296875 L 166.324219 216.5 C 166.808594 215.714844 168.085938 216.582031 170.152344 219.105469 L 170.296875 219.417969 L 175.222656 215.46875 L 172.886719 211.714844 Z M 173.050781 210.960938 "/>
</g>
</svg>
